<?xml version="1.0" encoding="UTF-8"?>
<svg width="256" height="256" viewBox="0 0 256 256" fill="none" xmlns="http://www.w3.org/2000/svg">
  <defs>
    <linearGradient id="g" x1="32" y1="24" x2="224" y2="232" gradientUnits="userSpaceOnUse">
      <stop stop-color="#60A5FA"/>
      <stop offset="1" stop-color="#22C55E"/>
    </linearGradient>
    <radialGradient id="glow" cx="0" cy="0" r="1" gradientUnits="userSpaceOnUse" gradientTransform="translate(76 62) rotate(55) scale(210 210)">
      <stop stop-color="#93C5FD" stop-opacity="0.55"/>
      <stop offset="1" stop-color="#0B1224" stop-opacity="0"/>
    </radialGradient>
    <filter id="shadow" x="-20" y="-20" width="296" height="296" filterUnits="userSpaceOnUse" color-interpolation-filters="sRGB">
      <feDropShadow dx="0" dy="14" stdDeviation="18" flood-color="#000000" flood-opacity="0.35"/>
    </filter>
  </defs>

  <rect x="18" y="18" width="220" height="220" rx="56" fill="url(#g)" filter="url(#shadow)"/>
  <rect x="18" y="18" width="220" height="220" rx="56" fill="url(#glow)"/>
  <rect x="18" y="18" width="220" height="220" rx="56" stroke="rgba(255,255,255,0.18)" stroke-width="2"/>

  <!-- stylized waveform -->
  <path d="M64 150 C78 150, 84 106, 98 106 C112 106, 116 170, 128 170 C140 170, 144 90, 158 90 C172 90, 178 150, 192 150"
        stroke="rgba(2,6,23,0.22)" stroke-width="18" stroke-linecap="round" stroke-linejoin="round" opacity="0.45"/>
  <path d="M64 150 C78 150, 84 106, 98 106 C112 106, 116 170, 128 170 C140 170, 144 90, 158 90 C172 90, 178 150, 192 150"
        stroke="rgba(255,255,255,0.92)" stroke-width="14" stroke-linecap="round" stroke-linejoin="round"/>

  <!-- small mic dot -->
  <circle cx="198" cy="84" r="10" fill="rgba(2,6,23,0.18)"/>
  <circle cx="198" cy="84" r="8.7" fill="rgba(255,255,255,0.92)"/>
</svg>
